<svg width="24" height="24" viewBox="0 0 24 24" fill="none" xmlns="http://www.w3.org/2000/svg">
<circle cx="17" cy="8" r="4" fill="url(#paint0_linear_38_109)"/>
<circle cx="8" cy="11" r="1" fill="url(#paint1_linear_38_109)"/>
<circle cx="12" cy="11" r="1" fill="url(#paint2_linear_38_109)"/>
<circle cx="16" cy="11" r="1" fill="url(#paint3_linear_38_109)"/>
<g filter="url(#filter0_bi_38_109)">
<path d="M8 5C5.79086 5 4 6.79086 4 9V13C4 15.2091 5.79086 17 8 17H11.723C11.9043 17 12.0821 17.0493 12.2375 17.1425L16.2428 19.5457C16.576 19.7456 17 19.5056 17 19.1169V17.2616C17 17.0334 17.1558 16.8373 17.3702 16.7592C18.9045 16.1998 20 14.7278 20 13V9C20 6.79086 18.2091 5 16 5H8Z" fill="#F1F1F1" fill-opacity="0.1"/>
<path d="M8 5C5.79086 5 4 6.79086 4 9V13C4 15.2091 5.79086 17 8 17H11.723C11.9043 17 12.0821 17.0493 12.2375 17.1425L16.2428 19.5457C16.576 19.7456 17 19.5056 17 19.1169V17.2616C17 17.0334 17.1558 16.8373 17.3702 16.7592C18.9045 16.1998 20 14.7278 20 13V9C20 6.79086 18.2091 5 16 5H8Z" fill="url(#paint4_linear_38_109)" fill-opacity="0.2"/>
<path d="M4.1 9C4.1 6.84609 5.84609 5.1 8 5.1H16C18.1539 5.1 19.9 6.84609 19.9 9V13C19.9 14.6845 18.832 16.1198 17.3359 16.6652C17.0875 16.7558 16.9 16.9859 16.9 17.2616V19.1169C16.9 19.4278 16.5608 19.6199 16.2942 19.4599L12.289 17.0568C12.118 16.9542 11.9224 16.9 11.723 16.9H8C5.84609 16.9 4.1 15.1539 4.1 13V9Z" stroke="url(#paint5_linear_38_109)" stroke-opacity="0.1" stroke-width="0.2"/>
</g>
<g filter="url(#filter1_i_38_109)">
<circle cx="8" cy="11" r="1" fill="white" fill-opacity="0.16"/>
</g>
<g filter="url(#filter2_i_38_109)">
<circle cx="12" cy="11" r="1" fill="white" fill-opacity="0.16"/>
</g>
<g filter="url(#filter3_i_38_109)">
<circle cx="16" cy="11" r="1" fill="white" fill-opacity="0.16"/>
</g>
<defs>
<filter id="filter0_bi_38_109" x="1" y="2" width="22" height="20.6177" filterUnits="userSpaceOnUse" color-interpolation-filters="sRGB">
<feFlood flood-opacity="0" result="BackgroundImageFix"/>
<feGaussianBlur in="BackgroundImageFix" stdDeviation="1.5"/>
<feComposite in2="SourceAlpha" operator="in" result="effect1_backgroundBlur_38_109"/>
<feBlend mode="normal" in="SourceGraphic" in2="effect1_backgroundBlur_38_109" result="shape"/>
<feColorMatrix in="SourceAlpha" type="matrix" values="0 0 0 0 0 0 0 0 0 0 0 0 0 0 0 0 0 0 127 0" result="hardAlpha"/>
<feOffset dy="0.5"/>
<feGaussianBlur stdDeviation="1"/>
<feComposite in2="hardAlpha" operator="arithmetic" k2="-1" k3="1"/>
<feColorMatrix type="matrix" values="0 0 0 0 1 0 0 0 0 1 0 0 0 0 1 0 0 0 0.4 0"/>
<feBlend mode="normal" in2="shape" result="effect2_innerShadow_38_109"/>
</filter>
<filter id="filter1_i_38_109" x="7" y="10" width="2" height="2.5" filterUnits="userSpaceOnUse" color-interpolation-filters="sRGB">
<feFlood flood-opacity="0" result="BackgroundImageFix"/>
<feBlend mode="normal" in="SourceGraphic" in2="BackgroundImageFix" result="shape"/>
<feColorMatrix in="SourceAlpha" type="matrix" values="0 0 0 0 0 0 0 0 0 0 0 0 0 0 0 0 0 0 127 0" result="hardAlpha"/>
<feOffset dy="0.5"/>
<feGaussianBlur stdDeviation="0.25"/>
<feComposite in2="hardAlpha" operator="arithmetic" k2="-1" k3="1"/>
<feColorMatrix type="matrix" values="0 0 0 0 1 0 0 0 0 1 0 0 0 0 1 0 0 0 0.4 0"/>
<feBlend mode="normal" in2="shape" result="effect1_innerShadow_38_109"/>
</filter>
<filter id="filter2_i_38_109" x="11" y="10" width="2" height="2.5" filterUnits="userSpaceOnUse" color-interpolation-filters="sRGB">
<feFlood flood-opacity="0" result="BackgroundImageFix"/>
<feBlend mode="normal" in="SourceGraphic" in2="BackgroundImageFix" result="shape"/>
<feColorMatrix in="SourceAlpha" type="matrix" values="0 0 0 0 0 0 0 0 0 0 0 0 0 0 0 0 0 0 127 0" result="hardAlpha"/>
<feOffset dy="0.5"/>
<feGaussianBlur stdDeviation="0.25"/>
<feComposite in2="hardAlpha" operator="arithmetic" k2="-1" k3="1"/>
<feColorMatrix type="matrix" values="0 0 0 0 1 0 0 0 0 1 0 0 0 0 1 0 0 0 0.4 0"/>
<feBlend mode="normal" in2="shape" result="effect1_innerShadow_38_109"/>
</filter>
<filter id="filter3_i_38_109" x="15" y="10" width="2" height="2.5" filterUnits="userSpaceOnUse" color-interpolation-filters="sRGB">
<feFlood flood-opacity="0" result="BackgroundImageFix"/>
<feBlend mode="normal" in="SourceGraphic" in2="BackgroundImageFix" result="shape"/>
<feColorMatrix in="SourceAlpha" type="matrix" values="0 0 0 0 0 0 0 0 0 0 0 0 0 0 0 0 0 0 127 0" result="hardAlpha"/>
<feOffset dy="0.5"/>
<feGaussianBlur stdDeviation="0.25"/>
<feComposite in2="hardAlpha" operator="arithmetic" k2="-1" k3="1"/>
<feColorMatrix type="matrix" values="0 0 0 0 1 0 0 0 0 1 0 0 0 0 1 0 0 0 0.4 0"/>
<feBlend mode="normal" in2="shape" result="effect1_innerShadow_38_109"/>
</filter>
<linearGradient id="paint0_linear_38_109" x1="13.3333" y1="5.6" x2="22.054" y2="6.8112" gradientUnits="userSpaceOnUse">
<stop stop-color="#FE82DB"/>
<stop offset="1" stop-color="#68E4FF"/>
</linearGradient>
<linearGradient id="paint1_linear_38_109" x1="7.08333" y1="10.4" x2="9.2635" y2="10.7028" gradientUnits="userSpaceOnUse">
<stop stop-color="#FE82DB"/>
<stop offset="1" stop-color="#68E4FF"/>
</linearGradient>
<linearGradient id="paint2_linear_38_109" x1="11.0833" y1="10.4" x2="13.2635" y2="10.7028" gradientUnits="userSpaceOnUse">
<stop stop-color="#FE82DB"/>
<stop offset="1" stop-color="#68E4FF"/>
</linearGradient>
<linearGradient id="paint3_linear_38_109" x1="15.0833" y1="10.4" x2="17.2635" y2="10.7028" gradientUnits="userSpaceOnUse">
<stop stop-color="#FE82DB"/>
<stop offset="1" stop-color="#68E4FF"/>
</linearGradient>
<linearGradient id="paint4_linear_38_109" x1="4.66667" y1="8" x2="22.0626" y2="10.5772" gradientUnits="userSpaceOnUse">
<stop stop-color="#FE82DB"/>
<stop offset="1" stop-color="#68E4FF"/>
</linearGradient>
<linearGradient id="paint5_linear_38_109" x1="4.5" y1="5.68182" x2="20" y2="5.68182" gradientUnits="userSpaceOnUse">
<stop stop-color="#FD84DC"/>
<stop offset="1" stop-color="#7FD6FA"/>
</linearGradient>
</defs>
</svg>
